<svg xmlns="http://www.w3.org/2000/svg" xmlns:xlink="http://www.w3.org/1999/xlink" viewBox="0 0 3918.66 3124.71"><defs><style>.cls-1{fill:none;}.cls-2{fill:#3998d8;}.cls-3{fill:#0382d8;}.cls-4{fill:#59a5d8;}.cls-5{clip-path:url(#clip-path);}.cls-6{fill:url(#Pinturitas);}.cls-7{fill:url(#Pinturitas-3);}.cls-8{fill:url(#Pinturitas-9);}.cls-9{fill:url(#Pinturitas-11);}.cls-10{fill:url(#Pinturitas-17);}.cls-11{fill:url(#Pinturitas-19);}.cls-12{fill:url(#Pinturitas-25);}.cls-13{fill:url(#Pinturitas-27);}.cls-14{fill:url(#Pinturitas-33);}.cls-15{fill:url(#Pinturitas-35);}.cls-16{fill:url(#Pinturitas-41);}.cls-17{fill:url(#Pinturitas-43);}.cls-18{fill:url(#Pinturitas-49);}.cls-19{fill:url(#Pinturitas-51);}.cls-20{fill:url(#Pinturitas-57);}.cls-21{fill:url(#Pinturitas-59);}.cls-22{fill:url(#Pinturitas-65);}.cls-23{fill:url(#Pinturitas-67);}.cls-24{fill:url(#Pinturitas-73);}.cls-25{fill:url(#Pinturitas-75);}.cls-26{fill:url(#Pinturitas-81);}.cls-27{fill:url(#Pinturitas-83);}.cls-28{fill:url(#Pinturitas-89);}.cls-29{fill:url(#Pinturitas-91);}</style><clipPath id="clip-path" transform="translate(43.46 465.66)"><rect class="cls-1" width="3479.07" height="2231.91"/></clipPath><pattern id="Pinturitas" data-name="Pinturitas" width="1020" height="1165.71" patternTransform="translate(-7.45 574.93)" patternUnits="userSpaceOnUse" viewBox="0 0 1020 1165.71"><rect class="cls-1" width="1020" height="1165.71"/><polygon class="cls-2" points="891 1165.71 1147 909.71 1403 1165.71 1147 1421.71 891 1165.71"/><polygon class="cls-2" points="381 1165.71 637 909.71 893 1165.71 637 1421.71 381 1165.71"/><polygon class="cls-3" points="637 909.71 893 653.71 1149 909.71 893 1165.71 637 909.71"/><polygon class="cls-2" points="-129 1165.71 127 909.71 383 1165.71 127 1421.71 -129 1165.71"/><polygon class="cls-3" points="127 909.71 383 653.71 639 909.71 383 1165.71 127 909.71"/><polygon class="cls-3" points="-383 909.71 -127 653.71 129 909.71 -127 1165.71 -383 909.71"/><polygon class="cls-2" points="636 582.86 892 326.86 1148 582.86 892 838.86 636 582.86"/><polygon class="cls-3" points="892 326.86 1148 70.86 1404 326.86 1148 582.86 892 326.86"/><polygon class="cls-4" points="892 838.86 1148 582.86 1404 838.86 1148 1094.86 892 838.86"/><polygon class="cls-2" points="126 582.86 382 326.86 638 582.86 382 838.86 126 582.86"/><polygon class="cls-3" points="382 326.86 638 70.86 894 326.86 638 582.86 382 326.86"/><polygon class="cls-4" points="382 838.86 638 582.86 894 838.86 638 1094.86 382 838.86"/><polygon class="cls-2" points="-384 582.86 -128 326.86 128 582.86 -128 838.86 -384 582.86"/><polygon class="cls-3" points="-128 326.86 128 70.86 384 326.86 128 582.86 -128 326.86"/><polygon class="cls-4" points="-128 838.86 128 582.86 384 838.86 128 1094.86 -128 838.86"/><polygon class="cls-2" points="891 0 1147 -256 1403 0 1147 256 891 0"/><polygon class="cls-2" points="381 0 637 -256 893 0 637 256 381 0"/><polygon class="cls-4" points="637 256 893 0 1149 256 893 512 637 256"/><polygon class="cls-2" points="-129 0 127 -256 383 0 127 256 -129 0"/><polygon class="cls-4" points="127 256 383 0 639 256 383 512 127 256"/><polygon class="cls-4" points="-383 256 -127 0 129 256 -127 512 -383 256"/></pattern><pattern id="Pinturitas-3" data-name="Pinturitas" width="1020" height="1165.71" patternTransform="translate(-50.91 109.27)" patternUnits="userSpaceOnUse" viewBox="0 0 1020 1165.71"><rect class="cls-1" width="1020" height="1165.71"/><polygon class="cls-2" points="891 1165.71 1147 909.71 1403 1165.71 1147 1421.71 891 1165.71"/><polygon class="cls-2" points="381 1165.71 637 909.71 893 1165.71 637 1421.71 381 1165.71"/><polygon class="cls-3" points="637 909.71 893 653.71 1149 909.71 893 1165.71 637 909.71"/><polygon class="cls-2" points="-129 1165.71 127 909.71 383 1165.71 127 1421.71 -129 1165.71"/><polygon class="cls-3" points="127 909.71 383 653.71 639 909.71 383 1165.71 127 909.71"/><polygon class="cls-3" points="-383 909.71 -127 653.71 129 909.71 -127 1165.71 -383 909.71"/><polygon class="cls-2" points="636 582.86 892 326.86 1148 582.86 892 838.86 636 582.86"/><polygon class="cls-3" points="892 326.86 1148 70.86 1404 326.86 1148 582.86 892 326.86"/><polygon class="cls-4" points="892 838.86 1148 582.86 1404 838.86 1148 1094.86 892 838.86"/><polygon class="cls-2" points="126 582.86 382 326.86 638 582.86 382 838.86 126 582.86"/><polygon class="cls-3" points="382 326.86 638 70.86 894 326.86 638 582.86 382 326.86"/><polygon class="cls-4" points="382 838.86 638 582.86 894 838.86 638 1094.86 382 838.86"/><polygon class="cls-2" points="-384 582.86 -128 326.86 128 582.86 -128 838.86 -384 582.86"/><polygon class="cls-3" points="-128 326.86 128 70.86 384 326.86 128 582.86 -128 326.86"/><polygon class="cls-4" points="-128 838.86 128 582.86 384 838.86 128 1094.86 -128 838.86"/><polygon class="cls-2" points="891 0 1147 -256 1403 0 1147 256 891 0"/><polygon class="cls-2" points="381 0 637 -256 893 0 637 256 381 0"/><polygon class="cls-4" points="637 256 893 0 1149 256 893 512 637 256"/><polygon class="cls-2" points="-129 0 127 -256 383 0 127 256 -129 0"/><polygon class="cls-4" points="127 256 383 0 639 256 383 512 127 256"/><polygon class="cls-4" points="-383 256 -127 0 129 256 -127 512 -383 256"/></pattern><pattern id="Pinturitas-9" data-name="Pinturitas" width="1020" height="1165.71" patternTransform="translate(1010.98 1040.58)" patternUnits="userSpaceOnUse" viewBox="0 0 1020 1165.71"><rect class="cls-1" width="1020" height="1165.71"/><polygon class="cls-2" points="891 1165.71 1147 909.71 1403 1165.71 1147 1421.71 891 1165.71"/><polygon class="cls-2" points="381 1165.71 637 909.71 893 1165.71 637 1421.71 381 1165.71"/><polygon class="cls-3" points="637 909.71 893 653.71 1149 909.71 893 1165.71 637 909.71"/><polygon class="cls-2" points="-129 1165.71 127 909.71 383 1165.71 127 1421.71 -129 1165.71"/><polygon class="cls-3" points="127 909.71 383 653.71 639 909.71 383 1165.71 127 909.71"/><polygon class="cls-3" points="-383 909.71 -127 653.71 129 909.71 -127 1165.71 -383 909.71"/><polygon class="cls-2" points="636 582.86 892 326.86 1148 582.86 892 838.86 636 582.86"/><polygon class="cls-3" points="892 326.86 1148 70.86 1404 326.86 1148 582.86 892 326.86"/><polygon class="cls-4" points="892 838.86 1148 582.86 1404 838.86 1148 1094.86 892 838.86"/><polygon class="cls-2" points="126 582.86 382 326.86 638 582.86 382 838.86 126 582.86"/><polygon class="cls-3" points="382 326.86 638 70.86 894 326.86 638 582.86 382 326.86"/><polygon class="cls-4" points="382 838.86 638 582.86 894 838.86 638 1094.86 382 838.86"/><polygon class="cls-2" points="-384 582.86 -128 326.86 128 582.86 -128 838.86 -384 582.86"/><polygon class="cls-3" points="-128 326.86 128 70.86 384 326.86 128 582.86 -128 326.86"/><polygon class="cls-4" points="-128 838.86 128 582.86 384 838.86 128 1094.86 -128 838.86"/><polygon class="cls-2" points="891 0 1147 -256 1403 0 1147 256 891 0"/><polygon class="cls-2" points="381 0 637 -256 893 0 637 256 381 0"/><polygon class="cls-4" points="637 256 893 0 1149 256 893 512 637 256"/><polygon class="cls-2" points="-129 0 127 -256 383 0 127 256 -129 0"/><polygon class="cls-4" points="127 256 383 0 639 256 383 512 127 256"/><polygon class="cls-4" points="-383 256 -127 0 129 256 -127 512 -383 256"/></pattern><pattern id="Pinturitas-11" data-name="Pinturitas" width="1020" height="1165.71" patternTransform="translate(967.53 574.93)" patternUnits="userSpaceOnUse" viewBox="0 0 1020 1165.71"><rect class="cls-1" width="1020" height="1165.71"/><polygon class="cls-2" points="891 1165.71 1147 909.71 1403 1165.71 1147 1421.71 891 1165.71"/><polygon class="cls-2" points="381 1165.71 637 909.71 893 1165.71 637 1421.71 381 1165.71"/><polygon class="cls-3" points="637 909.71 893 653.71 1149 909.71 893 1165.71 637 909.71"/><polygon class="cls-2" points="-129 1165.71 127 909.71 383 1165.71 127 1421.71 -129 1165.71"/><polygon class="cls-3" points="127 909.71 383 653.71 639 909.71 383 1165.71 127 909.71"/><polygon class="cls-3" points="-383 909.71 -127 653.71 129 909.71 -127 1165.71 -383 909.71"/><polygon class="cls-2" points="636 582.86 892 326.86 1148 582.86 892 838.86 636 582.86"/><polygon class="cls-3" points="892 326.86 1148 70.86 1404 326.86 1148 582.86 892 326.86"/><polygon class="cls-4" points="892 838.86 1148 582.86 1404 838.86 1148 1094.86 892 838.86"/><polygon class="cls-2" points="126 582.86 382 326.86 638 582.86 382 838.86 126 582.86"/><polygon class="cls-3" points="382 326.86 638 70.86 894 326.86 638 582.86 382 326.86"/><polygon class="cls-4" points="382 838.86 638 582.86 894 838.86 638 1094.86 382 838.86"/><polygon class="cls-2" points="-384 582.86 -128 326.86 128 582.86 -128 838.86 -384 582.86"/><polygon class="cls-3" points="-128 326.86 128 70.86 384 326.86 128 582.86 -128 326.86"/><polygon class="cls-4" points="-128 838.86 128 582.86 384 838.86 128 1094.86 -128 838.86"/><polygon class="cls-2" points="891 0 1147 -256 1403 0 1147 256 891 0"/><polygon class="cls-2" points="381 0 637 -256 893 0 637 256 381 0"/><polygon class="cls-4" points="637 256 893 0 1149 256 893 512 637 256"/><polygon class="cls-2" points="-129 0 127 -256 383 0 127 256 -129 0"/><polygon class="cls-4" points="127 256 383 0 639 256 383 512 127 256"/><polygon class="cls-4" points="-383 256 -127 0 129 256 -127 512 -383 256"/></pattern><pattern id="Pinturitas-17" data-name="Pinturitas" width="1020" height="1165.71" patternTransform="translate(1009.41 574.93)" patternUnits="userSpaceOnUse" viewBox="0 0 1020 1165.71"><rect class="cls-1" width="1020" height="1165.71"/><polygon class="cls-2" points="891 1165.71 1147 909.71 1403 1165.71 1147 1421.71 891 1165.71"/><polygon class="cls-2" points="381 1165.71 637 909.71 893 1165.71 637 1421.71 381 1165.71"/><polygon class="cls-3" points="637 909.71 893 653.71 1149 909.71 893 1165.71 637 909.71"/><polygon class="cls-2" points="-129 1165.71 127 909.71 383 1165.71 127 1421.71 -129 1165.71"/><polygon class="cls-3" points="127 909.71 383 653.71 639 909.71 383 1165.71 127 909.71"/><polygon class="cls-3" points="-383 909.71 -127 653.71 129 909.71 -127 1165.71 -383 909.71"/><polygon class="cls-2" points="636 582.86 892 326.86 1148 582.86 892 838.86 636 582.86"/><polygon class="cls-3" points="892 326.86 1148 70.86 1404 326.86 1148 582.86 892 326.86"/><polygon class="cls-4" points="892 838.86 1148 582.86 1404 838.86 1148 1094.86 892 838.86"/><polygon class="cls-2" points="126 582.86 382 326.86 638 582.86 382 838.86 126 582.86"/><polygon class="cls-3" points="382 326.86 638 70.86 894 326.86 638 582.86 382 326.86"/><polygon class="cls-4" points="382 838.86 638 582.86 894 838.86 638 1094.86 382 838.86"/><polygon class="cls-2" points="-384 582.86 -128 326.86 128 582.86 -128 838.86 -384 582.86"/><polygon class="cls-3" points="-128 326.86 128 70.86 384 326.86 128 582.86 -128 326.86"/><polygon class="cls-4" points="-128 838.86 128 582.86 384 838.86 128 1094.86 -128 838.86"/><polygon class="cls-2" points="891 0 1147 -256 1403 0 1147 256 891 0"/><polygon class="cls-2" points="381 0 637 -256 893 0 637 256 381 0"/><polygon class="cls-4" points="637 256 893 0 1149 256 893 512 637 256"/><polygon class="cls-2" points="-129 0 127 -256 383 0 127 256 -129 0"/><polygon class="cls-4" points="127 256 383 0 639 256 383 512 127 256"/><polygon class="cls-4" points="-383 256 -127 0 129 256 -127 512 -383 256"/></pattern><pattern id="Pinturitas-19" data-name="Pinturitas" width="1020" height="1165.71" patternTransform="translate(965.96 109.27)" patternUnits="userSpaceOnUse" viewBox="0 0 1020 1165.71"><rect class="cls-1" width="1020" height="1165.71"/><polygon class="cls-2" points="891 1165.71 1147 909.71 1403 1165.71 1147 1421.71 891 1165.71"/><polygon class="cls-2" points="381 1165.71 637 909.71 893 1165.71 637 1421.71 381 1165.71"/><polygon class="cls-3" points="637 909.71 893 653.71 1149 909.71 893 1165.71 637 909.71"/><polygon class="cls-2" points="-129 1165.71 127 909.71 383 1165.71 127 1421.71 -129 1165.71"/><polygon class="cls-3" points="127 909.71 383 653.71 639 909.71 383 1165.71 127 909.71"/><polygon class="cls-3" points="-383 909.71 -127 653.71 129 909.71 -127 1165.71 -383 909.71"/><polygon class="cls-2" points="636 582.86 892 326.86 1148 582.86 892 838.86 636 582.86"/><polygon class="cls-3" points="892 326.86 1148 70.86 1404 326.86 1148 582.86 892 326.86"/><polygon class="cls-4" points="892 838.86 1148 582.86 1404 838.86 1148 1094.86 892 838.86"/><polygon class="cls-2" points="126 582.86 382 326.86 638 582.86 382 838.86 126 582.86"/><polygon class="cls-3" points="382 326.86 638 70.86 894 326.86 638 582.86 382 326.86"/><polygon class="cls-4" points="382 838.86 638 582.86 894 838.86 638 1094.86 382 838.86"/><polygon class="cls-2" points="-384 582.86 -128 326.86 128 582.86 -128 838.86 -384 582.86"/><polygon class="cls-3" points="-128 326.86 128 70.86 384 326.86 128 582.86 -128 326.86"/><polygon class="cls-4" points="-128 838.86 128 582.86 384 838.86 128 1094.86 -128 838.86"/><polygon class="cls-2" points="891 0 1147 -256 1403 0 1147 256 891 0"/><polygon class="cls-2" points="381 0 637 -256 893 0 637 256 381 0"/><polygon class="cls-4" points="637 256 893 0 1149 256 893 512 637 256"/><polygon class="cls-2" points="-129 0 127 -256 383 0 127 256 -129 0"/><polygon class="cls-4" points="127 256 383 0 639 256 383 512 127 256"/><polygon class="cls-4" points="-383 256 -127 0 129 256 -127 512 -383 256"/></pattern><pattern id="Pinturitas-25" data-name="Pinturitas" width="1020" height="1165.71" patternTransform="translate(1007.85 1040.58)" patternUnits="userSpaceOnUse" viewBox="0 0 1020 1165.71"><rect class="cls-1" width="1020" height="1165.71"/><polygon class="cls-2" points="891 1165.71 1147 909.71 1403 1165.71 1147 1421.71 891 1165.71"/><polygon class="cls-2" points="381 1165.71 637 909.71 893 1165.71 637 1421.71 381 1165.71"/><polygon class="cls-3" points="637 909.71 893 653.71 1149 909.71 893 1165.71 637 909.71"/><polygon class="cls-2" points="-129 1165.71 127 909.71 383 1165.71 127 1421.71 -129 1165.71"/><polygon class="cls-3" points="127 909.71 383 653.71 639 909.71 383 1165.71 127 909.71"/><polygon class="cls-3" points="-383 909.71 -127 653.71 129 909.71 -127 1165.71 -383 909.71"/><polygon class="cls-2" points="636 582.86 892 326.86 1148 582.86 892 838.86 636 582.86"/><polygon class="cls-3" points="892 326.86 1148 70.86 1404 326.86 1148 582.86 892 326.86"/><polygon class="cls-4" points="892 838.86 1148 582.86 1404 838.86 1148 1094.86 892 838.86"/><polygon class="cls-2" points="126 582.86 382 326.86 638 582.86 382 838.86 126 582.86"/><polygon class="cls-3" points="382 326.86 638 70.86 894 326.86 638 582.86 382 326.86"/><polygon class="cls-4" points="382 838.86 638 582.86 894 838.86 638 1094.86 382 838.86"/><polygon class="cls-2" points="-384 582.86 -128 326.86 128 582.86 -128 838.86 -384 582.86"/><polygon class="cls-3" points="-128 326.86 128 70.86 384 326.86 128 582.86 -128 326.86"/><polygon class="cls-4" points="-128 838.86 128 582.86 384 838.86 128 1094.86 -128 838.86"/><polygon class="cls-2" points="891 0 1147 -256 1403 0 1147 256 891 0"/><polygon class="cls-2" points="381 0 637 -256 893 0 637 256 381 0"/><polygon class="cls-4" points="637 256 893 0 1149 256 893 512 637 256"/><polygon class="cls-2" points="-129 0 127 -256 383 0 127 256 -129 0"/><polygon class="cls-4" points="127 256 383 0 639 256 383 512 127 256"/><polygon class="cls-4" points="-383 256 -127 0 129 256 -127 512 -383 256"/></pattern><pattern id="Pinturitas-27" data-name="Pinturitas" width="1020" height="1165.71" patternTransform="translate(964.39 574.93)" patternUnits="userSpaceOnUse" viewBox="0 0 1020 1165.71"><rect class="cls-1" width="1020" height="1165.71"/><polygon class="cls-2" points="891 1165.71 1147 909.71 1403 1165.71 1147 1421.71 891 1165.71"/><polygon class="cls-2" points="381 1165.71 637 909.71 893 1165.71 637 1421.71 381 1165.71"/><polygon class="cls-3" points="637 909.71 893 653.71 1149 909.71 893 1165.71 637 909.71"/><polygon class="cls-2" points="-129 1165.71 127 909.71 383 1165.71 127 1421.71 -129 1165.71"/><polygon class="cls-3" points="127 909.71 383 653.71 639 909.71 383 1165.71 127 909.71"/><polygon class="cls-3" points="-383 909.71 -127 653.71 129 909.71 -127 1165.71 -383 909.71"/><polygon class="cls-2" points="636 582.86 892 326.86 1148 582.86 892 838.86 636 582.86"/><polygon class="cls-3" points="892 326.86 1148 70.86 1404 326.86 1148 582.86 892 326.86"/><polygon class="cls-4" points="892 838.86 1148 582.86 1404 838.86 1148 1094.86 892 838.86"/><polygon class="cls-2" points="126 582.86 382 326.86 638 582.86 382 838.86 126 582.86"/><polygon class="cls-3" points="382 326.86 638 70.86 894 326.86 638 582.86 382 326.86"/><polygon class="cls-4" points="382 838.86 638 582.86 894 838.86 638 1094.86 382 838.86"/><polygon class="cls-2" points="-384 582.86 -128 326.86 128 582.86 -128 838.86 -384 582.86"/><polygon class="cls-3" points="-128 326.86 128 70.86 384 326.86 128 582.86 -128 326.86"/><polygon class="cls-4" points="-128 838.86 128 582.86 384 838.86 128 1094.86 -128 838.86"/><polygon class="cls-2" points="891 0 1147 -256 1403 0 1147 256 891 0"/><polygon class="cls-2" points="381 0 637 -256 893 0 637 256 381 0"/><polygon class="cls-4" points="637 256 893 0 1149 256 893 512 637 256"/><polygon class="cls-2" points="-129 0 127 -256 383 0 127 256 -129 0"/><polygon class="cls-4" points="127 256 383 0 639 256 383 512 127 256"/><polygon class="cls-4" points="-383 256 -127 0 129 256 -127 512 -383 256"/></pattern><pattern id="Pinturitas-33" data-name="Pinturitas" width="1020" height="1165.71" patternTransform="translate(-7.45 1506.24)" patternUnits="userSpaceOnUse" viewBox="0 0 1020 1165.71"><rect class="cls-1" width="1020" height="1165.71"/><polygon class="cls-2" points="891 1165.71 1147 909.71 1403 1165.71 1147 1421.71 891 1165.71"/><polygon class="cls-2" points="381 1165.71 637 909.71 893 1165.71 637 1421.71 381 1165.71"/><polygon class="cls-3" points="637 909.71 893 653.71 1149 909.71 893 1165.71 637 909.71"/><polygon class="cls-2" points="-129 1165.71 127 909.71 383 1165.71 127 1421.71 -129 1165.71"/><polygon class="cls-3" points="127 909.71 383 653.71 639 909.71 383 1165.71 127 909.71"/><polygon class="cls-3" points="-383 909.71 -127 653.71 129 909.71 -127 1165.71 -383 909.71"/><polygon class="cls-2" points="636 582.86 892 326.86 1148 582.86 892 838.86 636 582.86"/><polygon class="cls-3" points="892 326.86 1148 70.86 1404 326.86 1148 582.86 892 326.86"/><polygon class="cls-4" points="892 838.86 1148 582.86 1404 838.86 1148 1094.86 892 838.86"/><polygon class="cls-2" points="126 582.86 382 326.86 638 582.86 382 838.86 126 582.86"/><polygon class="cls-3" points="382 326.86 638 70.86 894 326.86 638 582.86 382 326.86"/><polygon class="cls-4" points="382 838.86 638 582.86 894 838.86 638 1094.86 382 838.86"/><polygon class="cls-2" points="-384 582.86 -128 326.86 128 582.86 -128 838.86 -384 582.86"/><polygon class="cls-3" points="-128 326.86 128 70.86 384 326.86 128 582.86 -128 326.86"/><polygon class="cls-4" points="-128 838.86 128 582.86 384 838.86 128 1094.86 -128 838.86"/><polygon class="cls-2" points="891 0 1147 -256 1403 0 1147 256 891 0"/><polygon class="cls-2" points="381 0 637 -256 893 0 637 256 381 0"/><polygon class="cls-4" points="637 256 893 0 1149 256 893 512 637 256"/><polygon class="cls-2" points="-129 0 127 -256 383 0 127 256 -129 0"/><polygon class="cls-4" points="127 256 383 0 639 256 383 512 127 256"/><polygon class="cls-4" points="-383 256 -127 0 129 256 -127 512 -383 256"/></pattern><pattern id="Pinturitas-35" data-name="Pinturitas" width="1020" height="1165.71" patternTransform="translate(-50.91 1040.58)" patternUnits="userSpaceOnUse" viewBox="0 0 1020 1165.71"><rect class="cls-1" width="1020" height="1165.71"/><polygon class="cls-2" points="891 1165.71 1147 909.71 1403 1165.71 1147 1421.71 891 1165.71"/><polygon class="cls-2" points="381 1165.71 637 909.71 893 1165.71 637 1421.71 381 1165.71"/><polygon class="cls-3" points="637 909.71 893 653.71 1149 909.71 893 1165.71 637 909.71"/><polygon class="cls-2" points="-129 1165.71 127 909.71 383 1165.71 127 1421.71 -129 1165.71"/><polygon class="cls-3" points="127 909.71 383 653.71 639 909.71 383 1165.71 127 909.71"/><polygon class="cls-3" points="-383 909.71 -127 653.71 129 909.71 -127 1165.71 -383 909.71"/><polygon class="cls-2" points="636 582.86 892 326.86 1148 582.86 892 838.86 636 582.86"/><polygon class="cls-3" points="892 326.86 1148 70.86 1404 326.86 1148 582.86 892 326.86"/><polygon class="cls-4" points="892 838.86 1148 582.86 1404 838.86 1148 1094.86 892 838.86"/><polygon class="cls-2" points="126 582.86 382 326.86 638 582.86 382 838.86 126 582.86"/><polygon class="cls-3" points="382 326.86 638 70.86 894 326.86 638 582.86 382 326.86"/><polygon class="cls-4" points="382 838.86 638 582.86 894 838.86 638 1094.86 382 838.86"/><polygon class="cls-2" points="-384 582.86 -128 326.86 128 582.86 -128 838.86 -384 582.86"/><polygon class="cls-3" points="-128 326.86 128 70.86 384 326.86 128 582.86 -128 326.86"/><polygon class="cls-4" points="-128 838.86 128 582.86 384 838.86 128 1094.86 -128 838.86"/><polygon class="cls-2" points="891 0 1147 -256 1403 0 1147 256 891 0"/><polygon class="cls-2" points="381 0 637 -256 893 0 637 256 381 0"/><polygon class="cls-4" points="637 256 893 0 1149 256 893 512 637 256"/><polygon class="cls-2" points="-129 0 127 -256 383 0 127 256 -129 0"/><polygon class="cls-4" points="127 256 383 0 639 256 383 512 127 256"/><polygon class="cls-4" points="-383 256 -127 0 129 256 -127 512 -383 256"/></pattern><pattern id="Pinturitas-41" data-name="Pinturitas" width="1020" height="1165.71" patternTransform="translate(1010.98 1971.9)" patternUnits="userSpaceOnUse" viewBox="0 0 1020 1165.71"><rect class="cls-1" width="1020" height="1165.71"/><polygon class="cls-2" points="891 1165.71 1147 909.71 1403 1165.71 1147 1421.71 891 1165.71"/><polygon class="cls-2" points="381 1165.71 637 909.71 893 1165.71 637 1421.71 381 1165.71"/><polygon class="cls-3" points="637 909.71 893 653.71 1149 909.71 893 1165.71 637 909.71"/><polygon class="cls-2" points="-129 1165.71 127 909.71 383 1165.71 127 1421.71 -129 1165.71"/><polygon class="cls-3" points="127 909.71 383 653.71 639 909.71 383 1165.71 127 909.71"/><polygon class="cls-3" points="-383 909.71 -127 653.71 129 909.71 -127 1165.71 -383 909.71"/><polygon class="cls-2" points="636 582.86 892 326.86 1148 582.86 892 838.86 636 582.86"/><polygon class="cls-3" points="892 326.86 1148 70.86 1404 326.86 1148 582.86 892 326.86"/><polygon class="cls-4" points="892 838.86 1148 582.86 1404 838.86 1148 1094.86 892 838.86"/><polygon class="cls-2" points="126 582.86 382 326.86 638 582.86 382 838.86 126 582.86"/><polygon class="cls-3" points="382 326.86 638 70.86 894 326.86 638 582.86 382 326.86"/><polygon class="cls-4" points="382 838.86 638 582.86 894 838.86 638 1094.86 382 838.86"/><polygon class="cls-2" points="-384 582.86 -128 326.86 128 582.86 -128 838.86 -384 582.86"/><polygon class="cls-3" points="-128 326.86 128 70.86 384 326.86 128 582.86 -128 326.86"/><polygon class="cls-4" points="-128 838.86 128 582.86 384 838.86 128 1094.86 -128 838.86"/><polygon class="cls-2" points="891 0 1147 -256 1403 0 1147 256 891 0"/><polygon class="cls-2" points="381 0 637 -256 893 0 637 256 381 0"/><polygon class="cls-4" points="637 256 893 0 1149 256 893 512 637 256"/><polygon class="cls-2" points="-129 0 127 -256 383 0 127 256 -129 0"/><polygon class="cls-4" points="127 256 383 0 639 256 383 512 127 256"/><polygon class="cls-4" points="-383 256 -127 0 129 256 -127 512 -383 256"/></pattern><pattern id="Pinturitas-43" data-name="Pinturitas" width="1020" height="1165.71" patternTransform="translate(967.53 1506.24)" patternUnits="userSpaceOnUse" viewBox="0 0 1020 1165.71"><rect class="cls-1" width="1020" height="1165.71"/><polygon class="cls-2" points="891 1165.71 1147 909.71 1403 1165.71 1147 1421.71 891 1165.71"/><polygon class="cls-2" points="381 1165.71 637 909.71 893 1165.71 637 1421.71 381 1165.71"/><polygon class="cls-3" points="637 909.71 893 653.71 1149 909.71 893 1165.71 637 909.71"/><polygon class="cls-2" points="-129 1165.71 127 909.71 383 1165.71 127 1421.71 -129 1165.71"/><polygon class="cls-3" points="127 909.71 383 653.71 639 909.71 383 1165.71 127 909.71"/><polygon class="cls-3" points="-383 909.71 -127 653.71 129 909.71 -127 1165.71 -383 909.71"/><polygon class="cls-2" points="636 582.86 892 326.86 1148 582.86 892 838.86 636 582.86"/><polygon class="cls-3" points="892 326.86 1148 70.86 1404 326.86 1148 582.86 892 326.86"/><polygon class="cls-4" points="892 838.86 1148 582.86 1404 838.86 1148 1094.86 892 838.86"/><polygon class="cls-2" points="126 582.86 382 326.86 638 582.86 382 838.86 126 582.86"/><polygon class="cls-3" points="382 326.86 638 70.86 894 326.86 638 582.86 382 326.86"/><polygon class="cls-4" points="382 838.86 638 582.86 894 838.86 638 1094.86 382 838.86"/><polygon class="cls-2" points="-384 582.86 -128 326.86 128 582.86 -128 838.86 -384 582.86"/><polygon class="cls-3" points="-128 326.86 128 70.86 384 326.86 128 582.86 -128 326.86"/><polygon class="cls-4" points="-128 838.86 128 582.86 384 838.86 128 1094.86 -128 838.86"/><polygon class="cls-2" points="891 0 1147 -256 1403 0 1147 256 891 0"/><polygon class="cls-2" points="381 0 637 -256 893 0 637 256 381 0"/><polygon class="cls-4" points="637 256 893 0 1149 256 893 512 637 256"/><polygon class="cls-2" points="-129 0 127 -256 383 0 127 256 -129 0"/><polygon class="cls-4" points="127 256 383 0 639 256 383 512 127 256"/><polygon class="cls-4" points="-383 256 -127 0 129 256 -127 512 -383 256"/></pattern><pattern id="Pinturitas-49" data-name="Pinturitas" width="1020" height="1165.71" patternTransform="translate(1009.41 1506.24)" patternUnits="userSpaceOnUse" viewBox="0 0 1020 1165.71"><rect class="cls-1" width="1020" height="1165.71"/><polygon class="cls-2" points="891 1165.71 1147 909.71 1403 1165.71 1147 1421.71 891 1165.71"/><polygon class="cls-2" points="381 1165.71 637 909.71 893 1165.71 637 1421.71 381 1165.71"/><polygon class="cls-3" points="637 909.71 893 653.71 1149 909.71 893 1165.71 637 909.71"/><polygon class="cls-2" points="-129 1165.71 127 909.71 383 1165.71 127 1421.71 -129 1165.71"/><polygon class="cls-3" points="127 909.71 383 653.71 639 909.71 383 1165.71 127 909.71"/><polygon class="cls-3" points="-383 909.71 -127 653.71 129 909.71 -127 1165.71 -383 909.71"/><polygon class="cls-2" points="636 582.86 892 326.86 1148 582.86 892 838.86 636 582.86"/><polygon class="cls-3" points="892 326.86 1148 70.86 1404 326.86 1148 582.86 892 326.86"/><polygon class="cls-4" points="892 838.86 1148 582.86 1404 838.86 1148 1094.86 892 838.86"/><polygon class="cls-2" points="126 582.86 382 326.86 638 582.86 382 838.86 126 582.86"/><polygon class="cls-3" points="382 326.86 638 70.86 894 326.86 638 582.86 382 326.86"/><polygon class="cls-4" points="382 838.86 638 582.86 894 838.86 638 1094.86 382 838.86"/><polygon class="cls-2" points="-384 582.86 -128 326.86 128 582.86 -128 838.86 -384 582.86"/><polygon class="cls-3" points="-128 326.86 128 70.86 384 326.86 128 582.86 -128 326.86"/><polygon class="cls-4" points="-128 838.86 128 582.86 384 838.86 128 1094.86 -128 838.86"/><polygon class="cls-2" points="891 0 1147 -256 1403 0 1147 256 891 0"/><polygon class="cls-2" points="381 0 637 -256 893 0 637 256 381 0"/><polygon class="cls-4" points="637 256 893 0 1149 256 893 512 637 256"/><polygon class="cls-2" points="-129 0 127 -256 383 0 127 256 -129 0"/><polygon class="cls-4" points="127 256 383 0 639 256 383 512 127 256"/><polygon class="cls-4" points="-383 256 -127 0 129 256 -127 512 -383 256"/></pattern><pattern id="Pinturitas-51" data-name="Pinturitas" width="1020" height="1165.71" patternTransform="translate(965.96 1040.58)" patternUnits="userSpaceOnUse" viewBox="0 0 1020 1165.71"><rect class="cls-1" width="1020" height="1165.71"/><polygon class="cls-2" points="891 1165.71 1147 909.71 1403 1165.71 1147 1421.71 891 1165.71"/><polygon class="cls-2" points="381 1165.71 637 909.71 893 1165.71 637 1421.71 381 1165.71"/><polygon class="cls-3" points="637 909.71 893 653.71 1149 909.71 893 1165.71 637 909.71"/><polygon class="cls-2" points="-129 1165.71 127 909.71 383 1165.71 127 1421.71 -129 1165.71"/><polygon class="cls-3" points="127 909.71 383 653.71 639 909.71 383 1165.71 127 909.71"/><polygon class="cls-3" points="-383 909.71 -127 653.71 129 909.71 -127 1165.71 -383 909.71"/><polygon class="cls-2" points="636 582.86 892 326.86 1148 582.86 892 838.86 636 582.86"/><polygon class="cls-3" points="892 326.86 1148 70.86 1404 326.86 1148 582.86 892 326.86"/><polygon class="cls-4" points="892 838.86 1148 582.86 1404 838.86 1148 1094.86 892 838.86"/><polygon class="cls-2" points="126 582.86 382 326.86 638 582.86 382 838.86 126 582.86"/><polygon class="cls-3" points="382 326.86 638 70.86 894 326.86 638 582.86 382 326.86"/><polygon class="cls-4" points="382 838.86 638 582.86 894 838.86 638 1094.86 382 838.86"/><polygon class="cls-2" points="-384 582.86 -128 326.86 128 582.86 -128 838.86 -384 582.86"/><polygon class="cls-3" points="-128 326.86 128 70.86 384 326.86 128 582.86 -128 326.86"/><polygon class="cls-4" points="-128 838.86 128 582.86 384 838.86 128 1094.86 -128 838.86"/><polygon class="cls-2" points="891 0 1147 -256 1403 0 1147 256 891 0"/><polygon class="cls-2" points="381 0 637 -256 893 0 637 256 381 0"/><polygon class="cls-4" points="637 256 893 0 1149 256 893 512 637 256"/><polygon class="cls-2" points="-129 0 127 -256 383 0 127 256 -129 0"/><polygon class="cls-4" points="127 256 383 0 639 256 383 512 127 256"/><polygon class="cls-4" points="-383 256 -127 0 129 256 -127 512 -383 256"/></pattern><pattern id="Pinturitas-57" data-name="Pinturitas" width="1020" height="1165.71" patternTransform="translate(1007.85 1971.9)" patternUnits="userSpaceOnUse" viewBox="0 0 1020 1165.71"><rect class="cls-1" width="1020" height="1165.71"/><polygon class="cls-2" points="891 1165.71 1147 909.71 1403 1165.71 1147 1421.71 891 1165.71"/><polygon class="cls-2" points="381 1165.71 637 909.71 893 1165.71 637 1421.71 381 1165.71"/><polygon class="cls-3" points="637 909.71 893 653.71 1149 909.71 893 1165.71 637 909.71"/><polygon class="cls-2" points="-129 1165.71 127 909.71 383 1165.71 127 1421.71 -129 1165.71"/><polygon class="cls-3" points="127 909.71 383 653.71 639 909.71 383 1165.71 127 909.71"/><polygon class="cls-3" points="-383 909.71 -127 653.71 129 909.71 -127 1165.71 -383 909.71"/><polygon class="cls-2" points="636 582.86 892 326.86 1148 582.86 892 838.86 636 582.86"/><polygon class="cls-3" points="892 326.86 1148 70.86 1404 326.86 1148 582.86 892 326.86"/><polygon class="cls-4" points="892 838.86 1148 582.86 1404 838.86 1148 1094.86 892 838.86"/><polygon class="cls-2" points="126 582.86 382 326.86 638 582.86 382 838.86 126 582.86"/><polygon class="cls-3" points="382 326.86 638 70.86 894 326.86 638 582.86 382 326.86"/><polygon class="cls-4" points="382 838.86 638 582.86 894 838.86 638 1094.86 382 838.86"/><polygon class="cls-2" points="-384 582.86 -128 326.86 128 582.86 -128 838.86 -384 582.86"/><polygon class="cls-3" points="-128 326.86 128 70.86 384 326.86 128 582.86 -128 326.86"/><polygon class="cls-4" points="-128 838.86 128 582.86 384 838.86 128 1094.86 -128 838.86"/><polygon class="cls-2" points="891 0 1147 -256 1403 0 1147 256 891 0"/><polygon class="cls-2" points="381 0 637 -256 893 0 637 256 381 0"/><polygon class="cls-4" points="637 256 893 0 1149 256 893 512 637 256"/><polygon class="cls-2" points="-129 0 127 -256 383 0 127 256 -129 0"/><polygon class="cls-4" points="127 256 383 0 639 256 383 512 127 256"/><polygon class="cls-4" points="-383 256 -127 0 129 256 -127 512 -383 256"/></pattern><pattern id="Pinturitas-59" data-name="Pinturitas" width="1020" height="1165.71" patternTransform="translate(964.39 1506.24)" patternUnits="userSpaceOnUse" viewBox="0 0 1020 1165.71"><rect class="cls-1" width="1020" height="1165.71"/><polygon class="cls-2" points="891 1165.71 1147 909.71 1403 1165.71 1147 1421.71 891 1165.71"/><polygon class="cls-2" points="381 1165.71 637 909.71 893 1165.71 637 1421.71 381 1165.71"/><polygon class="cls-3" points="637 909.71 893 653.71 1149 909.71 893 1165.71 637 909.71"/><polygon class="cls-2" points="-129 1165.71 127 909.71 383 1165.71 127 1421.71 -129 1165.71"/><polygon class="cls-3" points="127 909.71 383 653.71 639 909.71 383 1165.71 127 909.71"/><polygon class="cls-3" points="-383 909.71 -127 653.71 129 909.71 -127 1165.71 -383 909.71"/><polygon class="cls-2" points="636 582.86 892 326.86 1148 582.86 892 838.86 636 582.86"/><polygon class="cls-3" points="892 326.86 1148 70.86 1404 326.86 1148 582.86 892 326.86"/><polygon class="cls-4" points="892 838.86 1148 582.86 1404 838.86 1148 1094.86 892 838.86"/><polygon class="cls-2" points="126 582.86 382 326.86 638 582.86 382 838.86 126 582.86"/><polygon class="cls-3" points="382 326.86 638 70.86 894 326.86 638 582.86 382 326.86"/><polygon class="cls-4" points="382 838.86 638 582.86 894 838.86 638 1094.86 382 838.86"/><polygon class="cls-2" points="-384 582.86 -128 326.86 128 582.86 -128 838.86 -384 582.86"/><polygon class="cls-3" points="-128 326.86 128 70.86 384 326.86 128 582.86 -128 326.86"/><polygon class="cls-4" points="-128 838.86 128 582.86 384 838.86 128 1094.86 -128 838.86"/><polygon class="cls-2" points="891 0 1147 -256 1403 0 1147 256 891 0"/><polygon class="cls-2" points="381 0 637 -256 893 0 637 256 381 0"/><polygon class="cls-4" points="637 256 893 0 1149 256 893 512 637 256"/><polygon class="cls-2" points="-129 0 127 -256 383 0 127 256 -129 0"/><polygon class="cls-4" points="127 256 383 0 639 256 383 512 127 256"/><polygon class="cls-4" points="-383 256 -127 0 129 256 -127 512 -383 256"/></pattern><pattern id="Pinturitas-65" data-name="Pinturitas" width="1020" height="1165.71" patternTransform="translate(-7.45 2437.56)" patternUnits="userSpaceOnUse" viewBox="0 0 1020 1165.71"><rect class="cls-1" width="1020" height="1165.71"/><polygon class="cls-2" points="891 1165.71 1147 909.71 1403 1165.71 1147 1421.71 891 1165.71"/><polygon class="cls-2" points="381 1165.71 637 909.71 893 1165.71 637 1421.71 381 1165.71"/><polygon class="cls-3" points="637 909.71 893 653.71 1149 909.71 893 1165.71 637 909.71"/><polygon class="cls-2" points="-129 1165.71 127 909.71 383 1165.71 127 1421.71 -129 1165.71"/><polygon class="cls-3" points="127 909.71 383 653.71 639 909.71 383 1165.71 127 909.71"/><polygon class="cls-3" points="-383 909.71 -127 653.71 129 909.71 -127 1165.71 -383 909.71"/><polygon class="cls-2" points="636 582.86 892 326.86 1148 582.86 892 838.86 636 582.86"/><polygon class="cls-3" points="892 326.86 1148 70.86 1404 326.86 1148 582.86 892 326.86"/><polygon class="cls-4" points="892 838.86 1148 582.86 1404 838.86 1148 1094.86 892 838.86"/><polygon class="cls-2" points="126 582.86 382 326.86 638 582.86 382 838.86 126 582.86"/><polygon class="cls-3" points="382 326.86 638 70.86 894 326.86 638 582.86 382 326.86"/><polygon class="cls-4" points="382 838.86 638 582.86 894 838.86 638 1094.86 382 838.86"/><polygon class="cls-2" points="-384 582.86 -128 326.86 128 582.86 -128 838.86 -384 582.86"/><polygon class="cls-3" points="-128 326.86 128 70.86 384 326.86 128 582.86 -128 326.86"/><polygon class="cls-4" points="-128 838.86 128 582.86 384 838.86 128 1094.86 -128 838.86"/><polygon class="cls-2" points="891 0 1147 -256 1403 0 1147 256 891 0"/><polygon class="cls-2" points="381 0 637 -256 893 0 637 256 381 0"/><polygon class="cls-4" points="637 256 893 0 1149 256 893 512 637 256"/><polygon class="cls-2" points="-129 0 127 -256 383 0 127 256 -129 0"/><polygon class="cls-4" points="127 256 383 0 639 256 383 512 127 256"/><polygon class="cls-4" points="-383 256 -127 0 129 256 -127 512 -383 256"/></pattern><pattern id="Pinturitas-67" data-name="Pinturitas" width="1020" height="1165.71" patternTransform="translate(-50.91 1971.9)" patternUnits="userSpaceOnUse" viewBox="0 0 1020 1165.71"><rect class="cls-1" width="1020" height="1165.71"/><polygon class="cls-2" points="891 1165.71 1147 909.71 1403 1165.71 1147 1421.71 891 1165.71"/><polygon class="cls-2" points="381 1165.71 637 909.71 893 1165.71 637 1421.71 381 1165.71"/><polygon class="cls-3" points="637 909.71 893 653.71 1149 909.71 893 1165.71 637 909.71"/><polygon class="cls-2" points="-129 1165.71 127 909.71 383 1165.71 127 1421.71 -129 1165.71"/><polygon class="cls-3" points="127 909.71 383 653.71 639 909.71 383 1165.71 127 909.71"/><polygon class="cls-3" points="-383 909.71 -127 653.71 129 909.71 -127 1165.71 -383 909.71"/><polygon class="cls-2" points="636 582.86 892 326.86 1148 582.86 892 838.86 636 582.86"/><polygon class="cls-3" points="892 326.86 1148 70.86 1404 326.86 1148 582.86 892 326.86"/><polygon class="cls-4" points="892 838.86 1148 582.86 1404 838.86 1148 1094.86 892 838.86"/><polygon class="cls-2" points="126 582.86 382 326.86 638 582.86 382 838.86 126 582.86"/><polygon class="cls-3" points="382 326.86 638 70.86 894 326.86 638 582.86 382 326.86"/><polygon class="cls-4" points="382 838.86 638 582.86 894 838.86 638 1094.86 382 838.86"/><polygon class="cls-2" points="-384 582.86 -128 326.86 128 582.86 -128 838.86 -384 582.86"/><polygon class="cls-3" points="-128 326.86 128 70.86 384 326.86 128 582.86 -128 326.86"/><polygon class="cls-4" points="-128 838.86 128 582.86 384 838.86 128 1094.86 -128 838.86"/><polygon class="cls-2" points="891 0 1147 -256 1403 0 1147 256 891 0"/><polygon class="cls-2" points="381 0 637 -256 893 0 637 256 381 0"/><polygon class="cls-4" points="637 256 893 0 1149 256 893 512 637 256"/><polygon class="cls-2" points="-129 0 127 -256 383 0 127 256 -129 0"/><polygon class="cls-4" points="127 256 383 0 639 256 383 512 127 256"/><polygon class="cls-4" points="-383 256 -127 0 129 256 -127 512 -383 256"/></pattern><pattern id="Pinturitas-73" data-name="Pinturitas" width="1020" height="1165.71" patternTransform="translate(1010.98 1737.5)" patternUnits="userSpaceOnUse" viewBox="0 0 1020 1165.71"><rect class="cls-1" width="1020" height="1165.71"/><polygon class="cls-2" points="891 1165.71 1147 909.71 1403 1165.71 1147 1421.71 891 1165.71"/><polygon class="cls-2" points="381 1165.71 637 909.71 893 1165.71 637 1421.71 381 1165.71"/><polygon class="cls-3" points="637 909.71 893 653.71 1149 909.71 893 1165.71 637 909.71"/><polygon class="cls-2" points="-129 1165.71 127 909.71 383 1165.71 127 1421.71 -129 1165.71"/><polygon class="cls-3" points="127 909.71 383 653.71 639 909.71 383 1165.71 127 909.71"/><polygon class="cls-3" points="-383 909.71 -127 653.71 129 909.71 -127 1165.71 -383 909.71"/><polygon class="cls-2" points="636 582.86 892 326.86 1148 582.86 892 838.86 636 582.86"/><polygon class="cls-3" points="892 326.86 1148 70.86 1404 326.86 1148 582.86 892 326.86"/><polygon class="cls-4" points="892 838.86 1148 582.86 1404 838.86 1148 1094.86 892 838.86"/><polygon class="cls-2" points="126 582.86 382 326.86 638 582.86 382 838.86 126 582.86"/><polygon class="cls-3" points="382 326.86 638 70.86 894 326.86 638 582.86 382 326.86"/><polygon class="cls-4" points="382 838.86 638 582.86 894 838.86 638 1094.86 382 838.86"/><polygon class="cls-2" points="-384 582.86 -128 326.86 128 582.86 -128 838.86 -384 582.86"/><polygon class="cls-3" points="-128 326.86 128 70.86 384 326.86 128 582.86 -128 326.86"/><polygon class="cls-4" points="-128 838.86 128 582.86 384 838.86 128 1094.86 -128 838.86"/><polygon class="cls-2" points="891 0 1147 -256 1403 0 1147 256 891 0"/><polygon class="cls-2" points="381 0 637 -256 893 0 637 256 381 0"/><polygon class="cls-4" points="637 256 893 0 1149 256 893 512 637 256"/><polygon class="cls-2" points="-129 0 127 -256 383 0 127 256 -129 0"/><polygon class="cls-4" points="127 256 383 0 639 256 383 512 127 256"/><polygon class="cls-4" points="-383 256 -127 0 129 256 -127 512 -383 256"/></pattern><pattern id="Pinturitas-75" data-name="Pinturitas" width="1020" height="1165.71" patternTransform="translate(967.53 1271.84)" patternUnits="userSpaceOnUse" viewBox="0 0 1020 1165.71"><rect class="cls-1" width="1020" height="1165.71"/><polygon class="cls-2" points="891 1165.71 1147 909.71 1403 1165.71 1147 1421.71 891 1165.71"/><polygon class="cls-2" points="381 1165.71 637 909.71 893 1165.71 637 1421.71 381 1165.71"/><polygon class="cls-3" points="637 909.71 893 653.71 1149 909.71 893 1165.71 637 909.71"/><polygon class="cls-2" points="-129 1165.71 127 909.71 383 1165.71 127 1421.71 -129 1165.71"/><polygon class="cls-3" points="127 909.71 383 653.71 639 909.71 383 1165.71 127 909.71"/><polygon class="cls-3" points="-383 909.71 -127 653.71 129 909.71 -127 1165.71 -383 909.71"/><polygon class="cls-2" points="636 582.86 892 326.86 1148 582.86 892 838.86 636 582.86"/><polygon class="cls-3" points="892 326.86 1148 70.86 1404 326.86 1148 582.86 892 326.86"/><polygon class="cls-4" points="892 838.86 1148 582.86 1404 838.86 1148 1094.86 892 838.86"/><polygon class="cls-2" points="126 582.86 382 326.86 638 582.86 382 838.86 126 582.86"/><polygon class="cls-3" points="382 326.86 638 70.86 894 326.86 638 582.86 382 326.86"/><polygon class="cls-4" points="382 838.86 638 582.86 894 838.86 638 1094.86 382 838.86"/><polygon class="cls-2" points="-384 582.86 -128 326.86 128 582.86 -128 838.86 -384 582.86"/><polygon class="cls-3" points="-128 326.86 128 70.86 384 326.86 128 582.86 -128 326.86"/><polygon class="cls-4" points="-128 838.86 128 582.86 384 838.86 128 1094.86 -128 838.86"/><polygon class="cls-2" points="891 0 1147 -256 1403 0 1147 256 891 0"/><polygon class="cls-2" points="381 0 637 -256 893 0 637 256 381 0"/><polygon class="cls-4" points="637 256 893 0 1149 256 893 512 637 256"/><polygon class="cls-2" points="-129 0 127 -256 383 0 127 256 -129 0"/><polygon class="cls-4" points="127 256 383 0 639 256 383 512 127 256"/><polygon class="cls-4" points="-383 256 -127 0 129 256 -127 512 -383 256"/></pattern><pattern id="Pinturitas-81" data-name="Pinturitas" width="1020" height="1165.71" patternTransform="translate(1009.41 2437.56)" patternUnits="userSpaceOnUse" viewBox="0 0 1020 1165.71"><rect class="cls-1" width="1020" height="1165.71"/><polygon class="cls-2" points="891 1165.71 1147 909.71 1403 1165.71 1147 1421.71 891 1165.71"/><polygon class="cls-2" points="381 1165.71 637 909.71 893 1165.71 637 1421.71 381 1165.71"/><polygon class="cls-3" points="637 909.71 893 653.71 1149 909.71 893 1165.71 637 909.71"/><polygon class="cls-2" points="-129 1165.71 127 909.71 383 1165.71 127 1421.71 -129 1165.71"/><polygon class="cls-3" points="127 909.71 383 653.71 639 909.71 383 1165.71 127 909.71"/><polygon class="cls-3" points="-383 909.71 -127 653.71 129 909.71 -127 1165.71 -383 909.71"/><polygon class="cls-2" points="636 582.86 892 326.86 1148 582.86 892 838.86 636 582.86"/><polygon class="cls-3" points="892 326.86 1148 70.86 1404 326.86 1148 582.86 892 326.86"/><polygon class="cls-4" points="892 838.86 1148 582.86 1404 838.86 1148 1094.86 892 838.86"/><polygon class="cls-2" points="126 582.86 382 326.86 638 582.86 382 838.86 126 582.86"/><polygon class="cls-3" points="382 326.86 638 70.86 894 326.86 638 582.86 382 326.86"/><polygon class="cls-4" points="382 838.86 638 582.86 894 838.86 638 1094.86 382 838.86"/><polygon class="cls-2" points="-384 582.86 -128 326.86 128 582.86 -128 838.86 -384 582.86"/><polygon class="cls-3" points="-128 326.86 128 70.86 384 326.86 128 582.86 -128 326.86"/><polygon class="cls-4" points="-128 838.86 128 582.86 384 838.86 128 1094.86 -128 838.86"/><polygon class="cls-2" points="891 0 1147 -256 1403 0 1147 256 891 0"/><polygon class="cls-2" points="381 0 637 -256 893 0 637 256 381 0"/><polygon class="cls-4" points="637 256 893 0 1149 256 893 512 637 256"/><polygon class="cls-2" points="-129 0 127 -256 383 0 127 256 -129 0"/><polygon class="cls-4" points="127 256 383 0 639 256 383 512 127 256"/><polygon class="cls-4" points="-383 256 -127 0 129 256 -127 512 -383 256"/></pattern><pattern id="Pinturitas-83" data-name="Pinturitas" width="1020" height="1165.71" patternTransform="translate(965.96 1971.9)" patternUnits="userSpaceOnUse" viewBox="0 0 1020 1165.71"><rect class="cls-1" width="1020" height="1165.71"/><polygon class="cls-2" points="891 1165.71 1147 909.71 1403 1165.71 1147 1421.71 891 1165.71"/><polygon class="cls-2" points="381 1165.71 637 909.71 893 1165.71 637 1421.71 381 1165.71"/><polygon class="cls-3" points="637 909.71 893 653.71 1149 909.71 893 1165.71 637 909.71"/><polygon class="cls-2" points="-129 1165.71 127 909.71 383 1165.71 127 1421.71 -129 1165.71"/><polygon class="cls-3" points="127 909.71 383 653.71 639 909.71 383 1165.71 127 909.71"/><polygon class="cls-3" points="-383 909.71 -127 653.71 129 909.71 -127 1165.71 -383 909.71"/><polygon class="cls-2" points="636 582.86 892 326.86 1148 582.86 892 838.86 636 582.86"/><polygon class="cls-3" points="892 326.86 1148 70.86 1404 326.86 1148 582.86 892 326.86"/><polygon class="cls-4" points="892 838.86 1148 582.86 1404 838.86 1148 1094.86 892 838.86"/><polygon class="cls-2" points="126 582.86 382 326.86 638 582.86 382 838.86 126 582.86"/><polygon class="cls-3" points="382 326.86 638 70.86 894 326.86 638 582.86 382 326.86"/><polygon class="cls-4" points="382 838.86 638 582.86 894 838.86 638 1094.86 382 838.86"/><polygon class="cls-2" points="-384 582.86 -128 326.86 128 582.86 -128 838.86 -384 582.86"/><polygon class="cls-3" points="-128 326.86 128 70.86 384 326.86 128 582.86 -128 326.86"/><polygon class="cls-4" points="-128 838.86 128 582.86 384 838.86 128 1094.86 -128 838.86"/><polygon class="cls-2" points="891 0 1147 -256 1403 0 1147 256 891 0"/><polygon class="cls-2" points="381 0 637 -256 893 0 637 256 381 0"/><polygon class="cls-4" points="637 256 893 0 1149 256 893 512 637 256"/><polygon class="cls-2" points="-129 0 127 -256 383 0 127 256 -129 0"/><polygon class="cls-4" points="127 256 383 0 639 256 383 512 127 256"/><polygon class="cls-4" points="-383 256 -127 0 129 256 -127 512 -383 256"/></pattern><pattern id="Pinturitas-89" data-name="Pinturitas" width="1020" height="1165.71" patternTransform="translate(1007.85 1737.5)" patternUnits="userSpaceOnUse" viewBox="0 0 1020 1165.71"><rect class="cls-1" width="1020" height="1165.71"/><polygon class="cls-2" points="891 1165.71 1147 909.71 1403 1165.71 1147 1421.71 891 1165.71"/><polygon class="cls-2" points="381 1165.71 637 909.71 893 1165.71 637 1421.71 381 1165.71"/><polygon class="cls-3" points="637 909.71 893 653.71 1149 909.71 893 1165.71 637 909.71"/><polygon class="cls-2" points="-129 1165.71 127 909.71 383 1165.71 127 1421.71 -129 1165.71"/><polygon class="cls-3" points="127 909.71 383 653.71 639 909.71 383 1165.71 127 909.71"/><polygon class="cls-3" points="-383 909.71 -127 653.71 129 909.71 -127 1165.71 -383 909.71"/><polygon class="cls-2" points="636 582.86 892 326.86 1148 582.86 892 838.86 636 582.86"/><polygon class="cls-3" points="892 326.86 1148 70.86 1404 326.86 1148 582.86 892 326.86"/><polygon class="cls-4" points="892 838.86 1148 582.86 1404 838.86 1148 1094.86 892 838.86"/><polygon class="cls-2" points="126 582.86 382 326.86 638 582.86 382 838.86 126 582.86"/><polygon class="cls-3" points="382 326.86 638 70.86 894 326.86 638 582.86 382 326.86"/><polygon class="cls-4" points="382 838.86 638 582.86 894 838.86 638 1094.86 382 838.86"/><polygon class="cls-2" points="-384 582.86 -128 326.86 128 582.86 -128 838.86 -384 582.86"/><polygon class="cls-3" points="-128 326.86 128 70.86 384 326.86 128 582.86 -128 326.86"/><polygon class="cls-4" points="-128 838.86 128 582.86 384 838.86 128 1094.86 -128 838.86"/><polygon class="cls-2" points="891 0 1147 -256 1403 0 1147 256 891 0"/><polygon class="cls-2" points="381 0 637 -256 893 0 637 256 381 0"/><polygon class="cls-4" points="637 256 893 0 1149 256 893 512 637 256"/><polygon class="cls-2" points="-129 0 127 -256 383 0 127 256 -129 0"/><polygon class="cls-4" points="127 256 383 0 639 256 383 512 127 256"/><polygon class="cls-4" points="-383 256 -127 0 129 256 -127 512 -383 256"/></pattern><pattern id="Pinturitas-91" data-name="Pinturitas" width="1020" height="1165.71" patternTransform="translate(964.39 1271.84)" patternUnits="userSpaceOnUse" viewBox="0 0 1020 1165.71"><rect class="cls-1" width="1020" height="1165.71"/><polygon class="cls-2" points="891 1165.71 1147 909.71 1403 1165.71 1147 1421.71 891 1165.71"/><polygon class="cls-2" points="381 1165.71 637 909.71 893 1165.71 637 1421.71 381 1165.71"/><polygon class="cls-3" points="637 909.71 893 653.71 1149 909.71 893 1165.71 637 909.71"/><polygon class="cls-2" points="-129 1165.71 127 909.71 383 1165.71 127 1421.71 -129 1165.71"/><polygon class="cls-3" points="127 909.71 383 653.71 639 909.71 383 1165.71 127 909.71"/><polygon class="cls-3" points="-383 909.71 -127 653.71 129 909.71 -127 1165.71 -383 909.71"/><polygon class="cls-2" points="636 582.86 892 326.86 1148 582.86 892 838.86 636 582.86"/><polygon class="cls-3" points="892 326.86 1148 70.86 1404 326.86 1148 582.86 892 326.86"/><polygon class="cls-4" points="892 838.86 1148 582.86 1404 838.86 1148 1094.86 892 838.86"/><polygon class="cls-2" points="126 582.86 382 326.86 638 582.86 382 838.86 126 582.86"/><polygon class="cls-3" points="382 326.86 638 70.86 894 326.86 638 582.86 382 326.86"/><polygon class="cls-4" points="382 838.86 638 582.86 894 838.86 638 1094.86 382 838.86"/><polygon class="cls-2" points="-384 582.86 -128 326.86 128 582.86 -128 838.86 -384 582.86"/><polygon class="cls-3" points="-128 326.86 128 70.86 384 326.86 128 582.86 -128 326.86"/><polygon class="cls-4" points="-128 838.86 128 582.86 384 838.86 128 1094.86 -128 838.86"/><polygon class="cls-2" points="891 0 1147 -256 1403 0 1147 256 891 0"/><polygon class="cls-2" points="381 0 637 -256 893 0 637 256 381 0"/><polygon class="cls-4" points="637 256 893 0 1149 256 893 512 637 256"/><polygon class="cls-2" points="-129 0 127 -256 383 0 127 256 -129 0"/><polygon class="cls-4" points="127 256 383 0 639 256 383 512 127 256"/><polygon class="cls-4" points="-383 256 -127 0 129 256 -127 512 -383 256"/></pattern></defs><g id="Capa_2" data-name="Capa 2"><g id="Capa_1-2" data-name="Capa 1"><g class="cls-5"><rect class="cls-6" x="532.26" width="331.1" height="331.1" rx="55.05"/><path class="cls-7" d="M363.06,158.38,206.79,314.64a55,55,0,0,1-77.85,0L-27.33,158.38a55.06,55.06,0,0,1,0-77.86L128.94-75.75a55,55,0,0,1,77.85,0L363.06,80.52A55.06,55.06,0,0,1,363.06,158.38Z" transform="translate(43.46 465.66)"/><rect class="cls-6" x="45.77" width="331.1" height="331.1"/><path class="cls-7" d="M771.42,243.68h0a165.56,165.56,0,0,1-234.13,0h0a165.55,165.55,0,0,1,0-234.12h0a165.56,165.56,0,0,1,234.13,0h0A165.55,165.55,0,0,1,771.42,243.68Z" transform="translate(43.46 465.66)"/><rect class="cls-8" x="1550.69" y="465.66" width="331.1" height="331.1" rx="55.05"/><path class="cls-9" d="M1381.49,624,1225.22,780.3a55,55,0,0,1-77.85,0L991.1,624a55,55,0,0,1,0-77.85l156.27-156.27a55,55,0,0,1,77.85,0l156.27,156.27A55,55,0,0,1,1381.49,624Z" transform="translate(43.46 465.66)"/><rect class="cls-8" x="1064.2" y="465.66" width="331.1" height="331.1"/><path class="cls-9" d="M1789.85,709.34h0a165.55,165.55,0,0,1-234.12,0h0a165.55,165.55,0,0,1,0-234.12h0a165.53,165.53,0,0,1,234.12,0h0A165.55,165.55,0,0,1,1789.85,709.34Z" transform="translate(43.46 465.66)"/><rect class="cls-10" x="2569.13" width="331.1" height="331.1" rx="55.05"/><path class="cls-11" d="M2399.92,158.38,2243.66,314.64a55.06,55.06,0,0,1-77.86,0L2009.53,158.38a55.06,55.06,0,0,1,0-77.86L2165.8-75.75a55.06,55.06,0,0,1,77.86,0L2399.92,80.52A55.06,55.06,0,0,1,2399.92,158.38Z" transform="translate(43.46 465.66)"/><rect class="cls-10" x="2082.63" width="331.1" height="331.1"/><path class="cls-11" d="M2808.28,243.68h0a165.55,165.55,0,0,1-234.12,0h0a165.55,165.55,0,0,1,0-234.12h0a165.55,165.55,0,0,1,234.12,0h0A165.55,165.55,0,0,1,2808.28,243.68Z" transform="translate(43.46 465.66)"/><rect class="cls-12" x="3587.56" y="465.66" width="331.1" height="331.1" rx="55.05"/><path class="cls-13" d="M3418.36,624,3262.09,780.3a55.06,55.06,0,0,1-77.86,0L3028,624a55,55,0,0,1,0-77.85l156.27-156.27a55.06,55.06,0,0,1,77.86,0l156.27,156.27A55,55,0,0,1,3418.36,624Z" transform="translate(43.46 465.66)"/><rect class="cls-12" x="3101.07" y="465.66" width="331.1" height="331.1"/><path class="cls-13" d="M3826.72,709.34h0a165.55,165.55,0,0,1-234.12,0h0a165.55,165.55,0,0,1,0-234.12h0a165.53,165.53,0,0,1,234.12,0h0A165.55,165.55,0,0,1,3826.72,709.34Z" transform="translate(43.46 465.66)"/><rect class="cls-14" x="532.26" y="931.31" width="331.1" height="331.1" rx="55.05"/><path class="cls-15" d="M363.06,1089.69,206.79,1246a55,55,0,0,1-77.85,0L-27.33,1089.69a55.06,55.06,0,0,1,0-77.86L128.94,855.57a55,55,0,0,1,77.85,0l156.27,156.26A55.06,55.06,0,0,1,363.06,1089.69Z" transform="translate(43.46 465.66)"/><rect class="cls-14" x="45.77" y="931.31" width="331.1" height="331.1"/><path class="cls-15" d="M771.42,1175h0a165.56,165.56,0,0,1-234.13,0h0a165.56,165.56,0,0,1,0-234.13h0a165.56,165.56,0,0,1,234.13,0h0A165.56,165.56,0,0,1,771.42,1175Z" transform="translate(43.46 465.66)"/><rect class="cls-16" x="1550.69" y="1396.97" width="331.1" height="331.1" rx="55.05"/><path class="cls-17" d="M1381.49,1555.35l-156.27,156.27a55,55,0,0,1-77.85,0L991.1,1555.35a55.06,55.06,0,0,1,0-77.86l156.27-156.27a55,55,0,0,1,77.85,0l156.27,156.27A55.06,55.06,0,0,1,1381.49,1555.35Z" transform="translate(43.46 465.66)"/><rect class="cls-16" x="1064.2" y="1396.97" width="331.1" height="331.1"/><path class="cls-17" d="M1789.85,1640.65h0a165.53,165.53,0,0,1-234.12,0h0a165.55,165.55,0,0,1,0-234.12h0a165.55,165.55,0,0,1,234.12,0h0A165.55,165.55,0,0,1,1789.85,1640.65Z" transform="translate(43.46 465.66)"/><rect class="cls-18" x="2569.13" y="931.31" width="331.1" height="331.1" rx="55.05"/><path class="cls-19" d="M2399.92,1089.69,2243.66,1246a55.06,55.06,0,0,1-77.86,0l-156.27-156.27a55.06,55.06,0,0,1,0-77.86L2165.8,855.57a55.06,55.06,0,0,1,77.86,0l156.26,156.26A55.06,55.06,0,0,1,2399.92,1089.69Z" transform="translate(43.46 465.66)"/><rect class="cls-18" x="2082.63" y="931.31" width="331.1" height="331.1"/><path class="cls-19" d="M2808.28,1175h0a165.55,165.55,0,0,1-234.12,0h0a165.56,165.56,0,0,1,0-234.13h0a165.55,165.55,0,0,1,234.12,0h0A165.56,165.56,0,0,1,2808.28,1175Z" transform="translate(43.46 465.66)"/><rect class="cls-20" x="3587.56" y="1396.97" width="331.1" height="331.1" rx="55.05"/><path class="cls-21" d="M3418.36,1555.35l-156.27,156.27a55.06,55.06,0,0,1-77.86,0L3028,1555.35a55.06,55.06,0,0,1,0-77.86l156.27-156.27a55.06,55.06,0,0,1,77.86,0l156.27,156.27A55.06,55.06,0,0,1,3418.36,1555.35Z" transform="translate(43.46 465.66)"/><rect class="cls-20" x="3101.07" y="1396.97" width="331.1" height="331.1"/><path class="cls-21" d="M3826.72,1640.65h0a165.53,165.53,0,0,1-234.12,0h0a165.55,165.55,0,0,1,0-234.12h0a165.55,165.55,0,0,1,234.12,0h0A165.55,165.55,0,0,1,3826.72,1640.65Z" transform="translate(43.46 465.66)"/><rect class="cls-22" x="532.26" y="1862.63" width="331.1" height="331.1" rx="55.05"/><path class="cls-23" d="M363.06,2021,206.79,2177.27a55,55,0,0,1-77.85,0L-27.33,2021a55.06,55.06,0,0,1,0-77.86l156.27-156.27a55,55,0,0,1,77.85,0l156.27,156.27A55.06,55.06,0,0,1,363.06,2021Z" transform="translate(43.46 465.66)"/><rect class="cls-22" x="45.77" y="1862.63" width="331.1" height="331.1"/><path class="cls-23" d="M771.42,2106.31h0a165.56,165.56,0,0,1-234.13,0h0a165.55,165.55,0,0,1,0-234.12h0a165.56,165.56,0,0,1,234.13,0h0A165.55,165.55,0,0,1,771.42,2106.31Z" transform="translate(43.46 465.66)"/><rect class="cls-24" x="1550.69" y="2328.29" width="331.1" height="331.1" rx="55.05"/><path class="cls-25" d="M1381.49,2486.66l-156.27,156.27a55,55,0,0,1-77.85,0L991.1,2486.66a55,55,0,0,1,0-77.85l156.27-156.27a55,55,0,0,1,77.85,0l156.27,156.27A55,55,0,0,1,1381.49,2486.66Z" transform="translate(43.46 465.66)"/><rect class="cls-24" x="1064.2" y="2328.29" width="331.1" height="331.1"/><path class="cls-25" d="M1789.85,2572h0a165.55,165.55,0,0,1-234.12,0h0a165.56,165.56,0,0,1,0-234.13h0a165.55,165.55,0,0,1,234.12,0h0A165.56,165.56,0,0,1,1789.85,2572Z" transform="translate(43.46 465.66)"/><rect class="cls-26" x="2569.13" y="1862.63" width="331.1" height="331.1" rx="55.05"/><path class="cls-27" d="M2399.92,2021l-156.26,156.26a55.06,55.06,0,0,1-77.86,0L2009.53,2021a55.06,55.06,0,0,1,0-77.86l156.27-156.27a55.06,55.06,0,0,1,77.86,0l156.26,156.27A55.06,55.06,0,0,1,2399.92,2021Z" transform="translate(43.46 465.66)"/><rect class="cls-26" x="2082.63" y="1862.63" width="331.1" height="331.1"/><path class="cls-27" d="M2808.28,2106.31h0a165.55,165.55,0,0,1-234.12,0h0a165.55,165.55,0,0,1,0-234.12h0a165.55,165.55,0,0,1,234.12,0h0A165.55,165.55,0,0,1,2808.28,2106.31Z" transform="translate(43.46 465.66)"/><rect class="cls-28" x="3587.56" y="2328.29" width="331.1" height="331.1" rx="55.05"/><path class="cls-29" d="M3418.36,2486.66l-156.27,156.27a55.06,55.06,0,0,1-77.86,0L3028,2486.66a55,55,0,0,1,0-77.85l156.27-156.27a55.06,55.06,0,0,1,77.86,0l156.27,156.27A55,55,0,0,1,3418.36,2486.66Z" transform="translate(43.46 465.66)"/><rect class="cls-28" x="3101.07" y="2328.29" width="331.1" height="331.1"/><path class="cls-29" d="M3826.72,2572h0a165.55,165.55,0,0,1-234.12,0h0a165.56,165.56,0,0,1,0-234.13h0a165.55,165.55,0,0,1,234.12,0h0A165.56,165.56,0,0,1,3826.72,2572Z" transform="translate(43.46 465.66)"/></g></g></g></svg>