<?xml version="1.0" encoding="utf-8"?>
<!-- Generator: Adobe Illustrator 25.2.3, SVG Export Plug-In . SVG Version: 6.00 Build 0)  -->
<svg version="1.1" id="Capa_1" xmlns="http://www.w3.org/2000/svg" xmlns:xlink="http://www.w3.org/1999/xlink" x="0px" y="0px"
	 viewBox="0 0 786 786" style="enable-background:new 0 0 786 786;" xml:space="preserve">
<style type="text/css">
	.st0{fill:url(#SVGID_1_);}
	.st1{fill:url(#SVGID_2_);}
	.st2{fill:url(#SVGID_3_);}
	.st3{fill:url(#SVGID_4_);}
	.st4{fill:url(#SVGID_5_);}
	.st5{fill:url(#SVGID_6_);}
	.st6{fill:url(#SVGID_7_);}
	.st7{fill:url(#SVGID_8_);}
</style>
<g>
	
		<linearGradient id="SVGID_1_" gradientUnits="userSpaceOnUse" x1="-1.2677" y1="194.9746" x2="787.2924" y2="194.9746" gradientTransform="matrix(1 0 0 1 0 18)">
		<stop  offset="0" style="stop-color:#FFFFFF;stop-opacity:0"/>
		<stop  offset="0.52" style="stop-color:#FFFFFF"/>
		<stop  offset="1" style="stop-color:#000000;stop-opacity:0"/>
	</linearGradient>
	<polygon class="st0" points="786,213 687.8,213.4 589.5,213.7 393,213.9 196.5,213.7 98.3,213.4 0,213 98.3,212.5 196.5,212.2 
		393,212 589.5,212.2 687.8,212.5 	"/>
	
		<linearGradient id="SVGID_2_" gradientUnits="userSpaceOnUse" x1="-1.2677" y1="314.9603" x2="787.2924" y2="314.9603" gradientTransform="matrix(1 0 0 1 0 18)">
		<stop  offset="0" style="stop-color:#FFFFFF;stop-opacity:0"/>
		<stop  offset="0.52" style="stop-color:#FFFFFF"/>
		<stop  offset="1" style="stop-color:#000000;stop-opacity:0"/>
	</linearGradient>
	<polygon class="st1" points="786,333 687.8,333.4 589.5,333.7 393,333.9 196.5,333.7 98.3,333.4 0,333 98.3,332.5 196.5,332.3 
		393,332 589.5,332.3 687.8,332.6 	"/>
	
		<linearGradient id="SVGID_3_" gradientUnits="userSpaceOnUse" x1="-1.2677" y1="435.0397" x2="787.2924" y2="435.0397" gradientTransform="matrix(1 0 0 1 0 18)">
		<stop  offset="0" style="stop-color:#FFFFFF;stop-opacity:0"/>
		<stop  offset="0.52" style="stop-color:#FFFFFF"/>
		<stop  offset="1" style="stop-color:#000000;stop-opacity:0"/>
	</linearGradient>
	<polygon class="st2" points="786,453 687.8,453.4 589.5,453.7 393,454 196.5,453.7 98.3,453.5 0,453 98.3,452.6 196.5,452.3 
		393,452.1 589.5,452.3 687.8,452.6 	"/>
	
		<linearGradient id="SVGID_4_" gradientUnits="userSpaceOnUse" x1="-1.2677" y1="555.0254" x2="787.2924" y2="555.0254" gradientTransform="matrix(1 0 0 1 0 18)">
		<stop  offset="0" style="stop-color:#FFFFFF;stop-opacity:0"/>
		<stop  offset="0.52" style="stop-color:#FFFFFF"/>
		<stop  offset="1" style="stop-color:#000000;stop-opacity:0"/>
	</linearGradient>
	<polygon class="st3" points="786,573 687.8,573.5 589.5,573.8 393,574 196.5,573.8 98.3,573.5 0,573 98.3,572.6 196.5,572.3 
		393,572.1 589.5,572.3 687.8,572.6 	"/>
	
		<linearGradient id="SVGID_5_" gradientUnits="userSpaceOnUse" x1="567" y1="-19.3228" x2="567" y2="769.3153" gradientTransform="matrix(1 0 0 1 0 18)">
		<stop  offset="0" style="stop-color:#FFFFFF;stop-opacity:0"/>
		<stop  offset="0.52" style="stop-color:#FFFFFF"/>
		<stop  offset="1" style="stop-color:#000000;stop-opacity:0"/>
	</linearGradient>
	<polygon class="st4" points="567,786 566.5,687.8 566.3,589.5 566.1,393 566.3,196.5 566.5,98.2 567,0 567.4,98.2 567.7,196.5 
		567.9,393 567.7,589.5 567.4,687.8 	"/>
	
		<linearGradient id="SVGID_6_" gradientUnits="userSpaceOnUse" x1="451" y1="-19.3228" x2="451" y2="769.3153" gradientTransform="matrix(1 0 0 1 0 18)">
		<stop  offset="0" style="stop-color:#FFFFFF;stop-opacity:0"/>
		<stop  offset="0.52" style="stop-color:#FFFFFF"/>
		<stop  offset="1" style="stop-color:#000000;stop-opacity:0"/>
	</linearGradient>
	<polygon class="st5" points="451,786 450.6,687.8 450.3,589.5 450.1,393 450.3,196.5 450.6,98.2 451,0 451.4,98.2 451.7,196.5 
		451.9,393 451.7,589.5 451.4,687.8 	"/>
	
		<linearGradient id="SVGID_7_" gradientUnits="userSpaceOnUse" x1="335" y1="-19.3228" x2="335" y2="769.3153" gradientTransform="matrix(1 0 0 1 0 18)">
		<stop  offset="0" style="stop-color:#FFFFFF;stop-opacity:0"/>
		<stop  offset="0.52" style="stop-color:#FFFFFF"/>
		<stop  offset="1" style="stop-color:#000000;stop-opacity:0"/>
	</linearGradient>
	<polygon class="st6" points="335,786 334.6,687.8 334.3,589.5 334.1,393 334.3,196.5 334.6,98.2 335,0 335.5,98.2 335.7,196.5 
		335.9,393 335.7,589.5 335.5,687.8 	"/>
	
		<linearGradient id="SVGID_8_" gradientUnits="userSpaceOnUse" x1="219.05" y1="-19.3129" x2="219.05" y2="769.3153" gradientTransform="matrix(1 0 0 1 0 18)">
		<stop  offset="0" style="stop-color:#FFFFFF;stop-opacity:0"/>
		<stop  offset="0.52" style="stop-color:#FFFFFF"/>
		<stop  offset="1" style="stop-color:#000000;stop-opacity:0"/>
	</linearGradient>
	<polygon class="st7" points="219.1,786 218.6,687.8 218.4,589.5 218.1,393 218.4,196.5 218.6,98.2 219,0 219.5,98.2 219.8,196.5 
		220,393 219.7,589.5 219.5,687.8 	"/>
</g>
</svg>
