<svg xmlns="http://www.w3.org/2000/svg" xmlns:xlink="http://www.w3.org/1999/xlink" viewBox="0 0 128 128"><defs><style>.cls-1{fill:url(#Degradado_sin_nombre);}.cls-2{fill:url(#Degradado_sin_nombre_2);}.cls-3{fill:url(#Degradado_sin_nombre_3);}.cls-4,.cls-5{fill:#fff;}.cls-5{fill-rule:evenodd;}</style><radialGradient id="Degradado_sin_nombre" cx="-617.47" cy="447.67" r="0.18" gradientTransform="matrix(362.5, -525, -525, -362.5, 458907.12, -161794.64)" gradientUnits="userSpaceOnUse"><stop offset="0" stop-color="#b13589"/><stop offset="0.79" stop-color="#c62f94"/><stop offset="1" stop-color="#8a3ac8"/></radialGradient><radialGradient id="Degradado_sin_nombre_2" cx="-617.2" cy="447.62" r="0.18" gradientTransform="matrix(237.5, -512.5, -512.5, -237.5, 376031.23, -209869.53)" gradientUnits="userSpaceOnUse"><stop offset="0" stop-color="#e0e8b7"/><stop offset="0.44" stop-color="#fb8a2e"/><stop offset="0.71" stop-color="#e2425c"/><stop offset="1" stop-color="#e2425c" stop-opacity="0"/></radialGradient><radialGradient id="Degradado_sin_nombre_3" cx="-617.43" cy="446.4" r="0.18" gradientTransform="matrix(962.5, -137.5, -29.41, -205.87, 607395.52, 7009.24)" gradientUnits="userSpaceOnUse"><stop offset="0.16" stop-color="#406adc"/><stop offset="0.47" stop-color="#6a45be"/><stop offset="1" stop-color="#6a45be" stop-opacity="0"/></radialGradient></defs><g id="Capa_2" data-name="Capa 2"><g id="Capa_1-2" data-name="Capa 1"><rect class="cls-1" width="128" height="128" rx="27.43"/><rect class="cls-2" width="128" height="128" rx="27.43"/><rect class="cls-3" width="128" height="128" rx="27.43"/><path class="cls-4" d="M96,38.86A6.86,6.86,0,1,1,89.14,32,6.86,6.86,0,0,1,96,38.86Z"/><path class="cls-5" d="M64,86.86A22.86,22.86,0,1,0,41.14,64,22.87,22.87,0,0,0,64,86.86Zm0-9.15A13.71,13.71,0,1,0,50.29,64,13.71,13.71,0,0,0,64,77.71Z"/><path class="cls-5" d="M18.29,62.17c0-15.36,0-23,3-28.91a27.31,27.31,0,0,1,12-12c5.87-3,13.55-3,28.91-3h3.66c15.36,0,23,0,28.91,3a27.31,27.31,0,0,1,12,12c3,5.87,3,13.55,3,28.91v3.66c0,15.36,0,23-3,28.91a27.31,27.31,0,0,1-12,12c-5.87,3-13.55,3-28.91,3H62.17c-15.36,0-23,0-28.91-3a27.31,27.31,0,0,1-12-12c-3-5.87-3-13.55-3-28.91ZM62.17,27.43h3.66c7.83,0,13.15,0,17.27.34s6.06.92,7.49,1.65a18.26,18.26,0,0,1,8,8c.73,1.43,1.32,3.48,1.65,7.49s.34,9.44.34,17.27v3.66c0,7.83,0,13.15-.34,17.27s-.92,6.06-1.65,7.49a18.26,18.26,0,0,1-8,8c-1.43.73-3.48,1.32-7.49,1.65s-9.44.34-17.27.34H62.17c-7.83,0-13.15,0-17.27-.34s-6.06-.92-7.49-1.65a18.26,18.26,0,0,1-8-8c-.73-1.43-1.32-3.48-1.65-7.49s-.34-9.44-.34-17.27V62.17c0-7.83,0-13.15.34-17.27s.92-6.06,1.65-7.49a18.26,18.26,0,0,1,8-8c1.43-.73,3.48-1.32,7.49-1.65S54.34,27.43,62.17,27.43Z"/></g></g></svg>