<svg xmlns="http://www.w3.org/2000/svg" viewBox="0 0 863.57 271.39"><defs><style>.cls-1,.cls-2{fill:none;stroke:#59a5d8;stroke-miterlimit:10;stroke-width:5px;}.cls-2{stroke-dasharray:63.53 63.53;}.cls-3{fill:#59a5d8;}</style></defs><g id="Capa_2" data-name="Capa 2"><g id="Capa_1-2" data-name="Capa 1"><path class="cls-1" d="M1.69,192.27q12-11,23.87-21.31"/><path class="cls-2" d="M74.7,130.69C340.63-73.83,543.35-8.32,735.78,150.5"/><path class="cls-1" d="M760,171q12,10.41,23.94,21.25"/><path class="cls-3" d="M826.34,158.73a4.16,4.16,0,0,0-7.33.05l-21.52,40.63L831,232.89a4.17,4.17,0,0,1-5.9,5.89L791.6,205.31,751,226.82a4.17,4.17,0,0,0-.06,7.34,336.51,336.51,0,0,0,107.82,37.18,4.17,4.17,0,0,0,4.79-3.44,4.37,4.37,0,0,0,0-1.35A336.18,336.18,0,0,0,826.34,158.73Z"/></g></g></svg>